<svg width="56" height="52" viewBox="0 0 56 52" fill="none" xmlns="http://www.w3.org/2000/svg">
<path d="M43.964 12.9998H11.5694C10.3421 12.9998 9.16498 13.4564 8.2971 14.269C7.42922 15.0817 6.94165 16.1839 6.94165 17.3332V38.9998C6.94165 40.1491 7.42922 41.2513 8.2971 42.064C9.16498 42.8766 10.3421 43.3332 11.5694 43.3332H43.964C45.1914 43.3332 46.3685 42.8766 47.2364 42.064C48.1042 41.2513 48.5918 40.1491 48.5918 38.9998V17.3332C48.5918 16.1839 48.1042 15.0817 47.2364 14.269C46.3685 13.4564 45.1914 12.9998 43.964 12.9998ZM43.964 12.9998V8.6665M13.8833 12.9998V8.6665M15.0403 28.1665H21.982M33.5515 28.1665H40.4932M37.0223 24.9165V31.4165" stroke="black" stroke-width="2" stroke-linecap="round" stroke-linejoin="round"/>
</svg>
