<svg width="287" height="201" viewBox="0 0 287 201" fill="none" xmlns="http://www.w3.org/2000/svg">
<path fill-rule="evenodd" clip-rule="evenodd" d="M182.744 0.0939941C161.459 21.3788 140.175 42.6637 118.984 63.8543L141.87 86.7402L182.933 45.6774L243.208 106.047L266 83.2555L182.744 0.0939941ZM141.87 95.7816L106.646 131.005L141.87 166.229L177.093 131.005L141.87 95.7816ZM182.462 54.813L172.384 64.8903L180.578 73.084L183.592 70.0702L231.247 117.726L238.311 110.662L182.462 54.813ZM170.218 67.0564L146.202 91.0725L186.229 131.099C171.443 145.886 156.75 160.578 141.964 175.364L97.5107 131.005C107.588 120.928 117.665 110.85 127.743 100.773L104.763 77.8872L59.6501 123L106.175 169.525L119.737 168.866L142.906 192.034L165.98 168.96L179.542 169.619L226.067 123.094L170.218 67.0564ZM173.138 161.802L178.129 162.461L216.461 124.13L213.636 121.305L173.138 161.802ZM103.256 -0.000167847L20 83.2555L42.0383 105.294L101.184 46.1483L113.051 58.0151L137.067 33.999L103.256 -0.000167847ZM47.8775 111.133L53.9992 117.255L102.502 68.6575L131.227 97.3826L137.349 91.2609C125.765 79.6767 114.087 67.9983 102.502 56.414L47.8775 111.133ZM112.674 161.708L107.682 162.367L69.3507 124.036L72.1761 121.21L112.674 161.708Z" fill="#ED1C24"/>
<path d="M141.87 95.0269L149.97 94.9327L149.781 102.09L156.939 101.996L156.751 109.154L163.908 109.06L163.72 116.218L170.878 116.123L170.689 123.281L177.847 123.187L177.564 131.192V139.48L170.407 139.292L170.501 146.544L163.343 146.355L163.437 153.607L156.28 153.419L156.374 160.671L149.216 160.482L149.31 167.734L141.493 167.263H133.205L133.394 160.106L126.142 160.2L126.33 153.042L119.078 153.136L119.267 145.979L112.486 145.884L112.674 138.727L105.422 138.821L105.799 130.91V122.622L112.957 122.81L112.862 115.558L120.02 115.747L119.926 108.495L127.084 108.683L126.989 101.431L134.147 101.62L134.053 94.3677L141.87 95.0269ZM177.094 131.004L177.282 123.846L170.124 123.94L170.313 116.783L163.155 116.877L163.343 109.719L156.185 109.813L156.374 102.656L149.216 102.75L149.404 95.592L142.153 95.6862L135.089 95.3095L135.183 102.561L128.025 102.373L128.12 109.625L120.962 109.437L121.056 116.688L113.898 116.5L113.993 123.752L106.646 123.564V131.004L106.27 138.067L113.522 137.973L113.333 145.131L120.585 145.037L120.397 152.195L127.649 152.1L127.46 159.258L134.712 159.164L134.524 166.322H141.964L148.934 166.698L148.839 159.446L155.997 159.635L155.903 152.383L163.061 152.571L162.966 145.319L170.124 145.508L170.03 138.256L177.188 138.444L177.094 131.004Z" fill="#ED1C24"/>
<path d="M68.6879 143.357V146.848C63.0585 146.848 62.6657 147.633 62.6657 153.35V189.658C62.6657 195.2 63.1457 195.985 68.7752 195.985V199.476H45.3846V195.985C51.0141 195.985 51.4068 195.2 51.4068 189.658V154.834H51.1886L32.9911 199.869H29.3691L10.9098 154.703H10.7352V189.658C10.7352 195.2 11.3025 195.985 16.3647 195.985V199.476H0V195.985C5.45489 195.985 5.93492 195.2 5.93492 189.658V153.001C5.93492 147.633 5.45489 146.848 0 146.848V143.357H17.2374L34.2567 184.901H34.4749L51.1014 143.357H68.6879Z" fill="white"/>
<path d="M108.051 190.924C108.051 194.939 108.923 196.379 110.582 196.379C111.367 196.379 112.153 196.161 112.895 195.724L113.375 198.648C111.411 199.433 109.185 199.914 105.781 199.914C101.33 199.914 99.2792 198.648 98.101 195.637H97.7955C95.0899 198.255 91.7733 200.394 85.4456 200.394C82.74 200.394 79.7289 199.608 77.4597 197.862C75.3214 196.291 73.8376 193.76 73.8376 190.357C73.8376 186.342 75.4959 183.243 79.4671 180.843C82.4782 178.923 86.6675 177.352 92.297 176.174L97.5773 174.996V171.679C97.5773 169.453 97.2718 167.49 96.3991 166.137C95.439 164.653 93.868 163.824 91.5115 163.824C89.1986 163.824 87.8894 164.522 86.6239 165.744C85.6638 166.704 84.9656 167.97 84.2674 169.759C83.5692 171.504 82.3473 172.595 79.6853 172.595C77.0669 172.595 75.8887 170.937 75.8887 169.017C75.8887 166.573 77.7215 164.129 80.7326 162.602C83.1764 161.424 86.493 160.464 92.297 160.464C99.4102 160.464 102.727 161.729 105.127 164.26C107.44 166.573 108.225 169.89 108.225 173.774V190.924H108.051ZM97.5337 178.269C94.4353 179.141 91.3806 180.189 89.0677 181.847C86.5366 183.505 84.8783 185.469 84.8783 188.873C84.8783 190.837 85.3584 192.495 86.3621 193.629C87.3221 194.808 88.7186 195.462 90.6387 195.462C93.7371 195.462 95.8754 193.717 97.5337 192.146V178.269Z" fill="white"/>
<path d="M121.36 199.957L120.269 199.564V153.001C120.269 148.332 119.877 147.546 116.167 147.546V144.71C119.964 144.142 124.939 142.877 129.608 141L130.786 141.655V164.609H130.961C133.317 162.296 136.59 160.594 141.478 160.594C146.453 160.594 150.337 162.34 153.173 165.438C156.184 168.842 157.93 173.73 157.93 179.926C157.93 185.949 156.272 191.491 152.78 195.2C149.944 198.517 145.798 200.48 140.3 200.48C135.238 200.48 132.226 198.822 129.39 196.291H129.172L121.36 199.957ZM130.786 192.495C132.27 193.978 134.976 196.509 138.292 196.509C140.736 196.509 143.136 195.244 144.62 192.014C145.885 189.396 146.758 185.512 146.758 179.926C146.758 176.217 146.104 171.853 144.62 168.755C143.267 166.224 141.303 164.566 138.467 164.566C135.238 164.566 133.012 166.311 130.786 168.668V192.495Z" fill="white"/>
<path d="M189.263 171.854C187.91 165.831 185.554 163.868 180.797 163.868C178.877 163.868 177.219 164.26 176.04 165.046C174.775 165.831 174.12 166.879 174.12 168.362C174.12 169.933 175.299 171.461 177.306 172.814C179.619 174.166 182.935 175.519 184.986 176.828C187.823 178.312 190.136 179.927 191.707 181.716C193.365 183.549 194.543 185.818 194.543 188.611C194.543 191.797 193.191 194.633 190.441 196.772C187.605 198.997 183.459 200.394 177.611 200.394C171.851 200.394 167.705 199.433 164.476 198.168C164.083 194.677 163.516 191.928 162.73 188.218L165.96 187.52C167.924 194.808 171.327 197.033 176.346 197.033C178.659 197.033 180.535 196.379 181.801 195.288C182.979 194.24 183.721 192.844 183.721 191.098C183.721 189.746 183.328 188.567 182.281 187.52C180.841 186.08 178.571 185.076 174.775 182.938C171.458 180.974 168.622 179.447 166.614 177.308C165.043 175.476 163.909 173.294 163.909 170.501C163.909 167.882 165.174 165.22 168.185 163.3C170.716 161.555 174.513 160.551 179.837 160.551C184.681 160.551 188.216 161.249 190.921 162.297C191.227 164.74 191.576 167.141 192.405 171.243L189.263 171.854Z" fill="white"/>
<path d="M233.862 190.924C233.862 194.939 234.735 196.379 236.393 196.379C237.179 196.379 237.964 196.161 238.706 195.724L239.186 198.648C237.222 199.433 234.997 199.914 231.593 199.914C227.142 199.914 225.091 198.648 223.913 195.637H223.607C220.901 198.255 217.585 200.394 211.257 200.394C208.552 200.394 205.54 199.608 203.271 197.862C201.133 196.291 199.649 193.76 199.649 190.357C199.649 186.342 201.307 183.243 205.279 180.843C208.29 178.923 212.479 177.352 218.109 176.174L223.389 174.996V171.679C223.389 169.453 223.083 167.49 222.211 166.137C221.251 164.653 219.68 163.824 217.323 163.824C215.01 163.824 213.701 164.522 212.435 165.744C211.475 166.704 210.777 167.97 210.079 169.759C209.381 171.504 208.159 172.595 205.497 172.595C202.878 172.595 201.7 170.937 201.7 169.017C201.7 166.573 203.533 164.129 206.544 162.602C208.988 161.424 212.305 160.464 218.109 160.464C225.222 160.464 228.538 161.729 230.938 164.26C233.251 166.573 234.037 169.89 234.037 173.774V190.924H233.862ZM223.345 178.269C220.247 179.141 217.192 180.189 214.879 181.847C212.348 183.505 210.69 185.469 210.69 188.873C210.69 190.837 211.17 192.495 212.174 193.629C213.134 194.808 214.53 195.462 216.45 195.462C219.549 195.462 221.687 193.717 223.345 192.146V178.269Z" fill="white"/>
<path d="M282.912 190.53C282.912 195.417 283.305 196.465 286.884 196.465V199.476H268.686V196.465C272.177 196.465 272.395 195.81 272.395 190.312V173.292C272.395 170.456 272.09 168.012 270.824 166.572C269.864 165.612 268.686 165.088 266.81 165.088C264.06 165.088 260.7 167.619 257.689 171.634V190.399C257.689 195.854 257.907 196.508 261.267 196.508V199.52H242.415V196.508C246.779 196.508 247.172 195.81 247.172 190.355V173.118C247.172 167.838 246.692 167.096 242.415 167.096V164.259C246.605 163.779 251.667 162.601 255.856 160.637L257.209 161.292L257.514 167.227H257.689C261.18 163.212 265.544 160.681 270.65 160.681C274.534 160.681 277.545 161.554 279.596 163.517C281.734 165.481 282.912 168.579 282.912 173.249V190.53Z" fill="white"/>
</svg>
