<svg width="44" height="207" viewBox="0 0 44 207" fill="none" xmlns="http://www.w3.org/2000/svg">
<path d="M1.73155 157.128L4.29181 157.128C4.29181 161.182 4.86787 161.465 9.06029 161.465L35.687 161.465C39.7514 161.465 40.3274 161.119 40.3274 157.066L42.8877 157.066L42.8877 173.91L40.3274 173.91C40.3274 169.856 39.7514 169.573 35.687 169.573L10.1484 169.573L10.1484 169.73L43.1757 182.835L43.1757 185.443L10.0524 198.736L10.0524 198.862L35.687 198.862C39.7514 198.862 40.3274 198.453 40.3274 194.808L42.8877 194.808L42.8877 206.592L40.3274 206.592C40.3274 202.664 39.7514 202.318 35.687 202.318L8.80426 202.318C4.86787 202.318 4.29181 202.664 4.29181 206.592L1.73155 206.592L1.73155 194.179L32.1986 181.923L32.1986 181.766L1.73155 169.793L1.73155 157.128Z" fill="white"/>
<path d="M36.6148 128.782C39.559 128.782 40.6152 128.154 40.6152 126.96C40.6152 126.394 40.4551 125.828 40.1351 125.294L42.2793 124.948C42.8554 126.362 43.2074 127.965 43.2074 130.416C43.2074 133.622 42.2793 135.099 40.0711 135.947L40.0711 136.167C41.9913 138.116 43.5594 140.504 43.5594 145.061C43.5594 147.009 42.9834 149.177 41.7033 150.812C40.5511 152.351 38.695 153.42 36.1987 153.42C33.2544 153.42 30.9822 152.226 29.222 149.366C27.8139 147.198 26.6618 144.181 25.7977 140.127L24.9336 136.324L22.5013 136.324C20.8692 136.324 19.429 136.544 18.4369 137.173C17.3488 137.864 16.7408 138.996 16.7408 140.693C16.7408 142.358 17.2528 143.301 18.1489 144.212C18.853 144.904 19.7811 145.406 21.0932 145.909C22.3733 146.412 23.1734 147.292 23.1734 149.209C23.1734 151.094 21.9573 151.943 20.5491 151.943C18.757 151.943 16.9648 150.623 15.8447 148.455C14.9806 146.695 14.2765 144.306 14.2765 140.127C14.2765 135.005 15.2046 132.616 17.0608 130.888C18.757 129.222 21.1892 128.657 24.0375 128.657L36.6148 128.657L36.6148 128.782ZM27.3338 136.356C27.9739 138.587 28.742 140.787 29.9581 142.452C31.1742 144.275 32.6143 145.469 35.1106 145.469C36.5507 145.469 37.7669 145.124 38.599 144.401C39.463 143.709 39.9431 142.704 39.9431 141.321C39.9431 139.09 38.663 137.55 37.5108 136.356L27.3338 136.356Z" fill="white"/>
<path d="M43.2397 119.198L42.9517 119.984L8.80428 119.984C5.37993 119.984 4.80387 120.266 4.80387 122.938L2.72366 122.938C2.30762 120.203 1.37953 116.621 0.00338702 113.258L0.483436 112.41L17.3171 112.41L17.3171 112.284C15.621 110.587 14.3728 108.23 14.3728 104.711C14.3728 101.128 15.653 98.3312 17.9252 96.2886C20.4214 94.1202 24.0058 92.8632 28.5503 92.8632C32.9667 92.8632 37.0311 94.0573 39.7514 96.5714C42.1836 98.6141 43.6238 101.599 43.6238 105.559C43.6238 109.204 42.4077 111.373 40.5515 113.416L40.5515 113.573L43.2397 119.198ZM37.7672 112.41C38.8553 111.341 40.7115 109.393 40.7115 107.005C40.7115 105.245 39.7834 103.516 37.4152 102.448C35.495 101.537 32.6467 100.908 28.5503 100.908C25.83 100.908 22.6297 101.38 20.3574 102.448C18.5013 103.422 17.2851 104.836 17.2851 106.879C17.2851 109.205 18.5653 110.807 20.2934 112.41L37.7672 112.41Z" fill="white"/>
<path d="M22.6293 70.299C18.2129 71.2732 16.7727 72.9702 16.7727 76.3956C16.7727 77.7783 17.0608 78.9724 17.6368 79.8209C18.2129 80.7323 18.981 81.2037 20.0691 81.2037C21.2212 81.2037 22.3413 80.3552 23.3334 78.9096C24.3255 77.244 25.3176 74.8557 26.2777 73.3787C27.3658 71.336 28.5499 69.6705 29.8621 68.5391C31.2062 67.345 32.8704 66.4965 34.9186 66.4965C37.2548 66.4965 39.335 67.4707 40.9032 69.4505C42.5353 71.4931 43.5594 74.4786 43.5594 78.6896C43.5594 82.8378 42.8554 85.8232 41.9273 88.1487C39.367 88.4316 37.3508 88.8401 34.6305 89.4058L34.1185 87.0803C39.463 85.6661 41.0952 83.2149 41.0952 79.601C41.0952 77.9354 40.6152 76.5841 39.8151 75.6728C39.047 74.8243 38.0229 74.29 36.7428 74.29C35.7507 74.29 34.8866 74.5729 34.1185 75.3271C33.0624 76.3641 32.3263 77.9983 30.7582 80.7323C29.318 83.1206 28.1979 85.1633 26.6297 86.6089C25.2856 87.7402 23.6854 88.5573 21.6372 88.5573C19.717 88.5573 17.7649 87.6459 16.3567 85.4776C15.0766 83.6549 14.3405 80.9209 14.3405 77.0869C14.3405 73.5987 14.8526 71.0532 15.6206 69.1048C17.4128 68.8848 19.173 68.6334 22.1813 68.0363L22.6293 70.299Z" fill="white"/>
<path d="M36.6148 38.1821C39.559 38.1821 40.6152 37.5536 40.6152 36.3594C40.6152 35.7938 40.4551 35.2281 40.1351 34.6939L42.2793 34.3482C42.8554 35.7624 43.2074 37.365 43.2074 39.8162C43.2074 43.0217 42.2793 44.4987 40.0711 45.3472L40.0711 45.5671C41.9913 47.5155 43.5594 49.9039 43.5594 54.4606C43.5594 56.409 42.9834 58.5774 41.7033 60.2115C40.5511 61.7514 38.695 62.8198 36.1987 62.8198C33.2544 62.8198 30.9822 61.6256 29.222 58.7659C27.8139 56.5975 26.6618 53.5807 25.7977 49.5268L24.9336 45.7243L22.5013 45.7243C20.8692 45.7243 19.429 45.9443 18.4369 46.5728C17.3488 47.2641 16.7408 48.3955 16.7408 50.0924C16.7408 51.758 17.2528 52.7008 18.1489 53.6121C18.853 54.3035 19.7811 54.8063 21.0932 55.3091C22.3733 55.8119 23.1734 56.6918 23.1734 58.6088C23.1734 60.4943 21.9573 61.3428 20.5491 61.3428C18.757 61.3428 16.9648 60.0229 15.8447 57.8546C14.9806 56.0947 14.2765 53.7064 14.2765 49.5268C14.2765 44.4044 15.2046 42.016 17.0608 40.2876C18.757 38.6221 21.1892 38.0564 24.0375 38.0564L36.6148 38.0564L36.6148 38.1821ZM27.3338 45.7557C27.9739 47.9869 28.742 50.1867 29.9581 51.8523C31.1742 53.675 32.6143 54.8691 35.1106 54.8691C36.5507 54.8691 37.7669 54.5235 38.599 53.8007C39.463 53.1093 39.9431 52.1037 39.9431 50.721C39.9431 48.4897 38.663 46.9499 37.5108 45.7557L27.3338 45.7557Z" fill="white"/>
<path d="M36.3266 2.85995C39.9109 2.85995 40.679 2.57711 40.679 0.000209905L42.8872 0.00020981L42.8872 13.1047L40.679 13.1047C40.679 10.5907 40.199 10.4335 36.1666 10.4335L23.6853 10.4335C21.6051 10.4335 19.8129 10.6535 18.7568 11.5649C18.0527 12.2562 17.6687 13.1047 17.6687 14.456C17.6687 16.4358 19.5249 18.8556 22.4692 21.024L36.2306 21.024C40.231 21.024 40.711 20.8668 40.711 18.4471L42.9192 18.4471L42.9193 32.0229L40.711 32.0229C40.711 28.8804 40.199 28.5975 36.1986 28.5975L23.5573 28.5975C19.6849 28.5975 19.1409 28.9432 19.1409 32.023L17.0606 32.023C16.7086 29.0061 15.8445 25.3607 14.4044 22.3439L14.8844 21.3696L19.2369 21.1497L19.2369 21.024C16.2926 18.5099 14.4364 15.3674 14.4364 11.6906C14.4364 8.89367 15.0764 6.7253 16.5166 5.2483C17.9567 3.70844 20.229 2.85995 23.6533 2.85995L36.3266 2.85995Z" fill="white"/>
</svg>
