<svg width="134" height="103" viewBox="0 0 134 103" fill="none" xmlns="http://www.w3.org/2000/svg">
<path fill-rule="evenodd" clip-rule="evenodd" d="M88.6629 0.338646C77.1457 11.648 65.6284 22.9574 54.1621 34.2167L66.5457 46.3768L88.7648 24.5587L121.38 56.6353L133.713 44.5253L88.6629 0.338646ZM66.5457 51.1808L47.4862 69.8963L66.5457 88.6119L85.6052 69.8963L66.5457 51.1808ZM88.51 29.4128L83.0572 34.7672L87.4908 39.1208L89.1216 37.5195L114.908 62.8405L118.73 59.0874L88.51 29.4128ZM81.8851 35.9182L68.8899 48.6787L90.5485 69.9464C82.5476 77.8029 74.5976 85.6094 66.5967 93.4659L42.5429 69.8963C47.9958 64.5419 53.4487 59.1875 58.9015 53.833L46.467 41.6729L22.0565 65.6428L47.2314 90.3633L54.5698 90.013L67.1063 102.323L79.5918 90.0631L86.9302 90.4134L112.105 65.6929L81.8851 35.9182ZM83.4649 86.2599L86.1658 86.6102L106.907 66.2433L105.378 64.7421L83.4649 86.2599ZM45.6516 0.288612L0.601807 44.5253L12.5267 56.235L44.5304 24.8089L50.9516 31.1142L63.9467 18.3536L45.6516 0.288612ZM15.6863 59.3376L18.9988 62.5903L45.2439 36.7689L60.7871 52.0315L64.0996 48.7788C57.8313 42.6237 51.5121 36.4186 45.2439 30.2635L15.6863 59.3376ZM50.7477 86.2099L48.0468 86.5602L27.3055 66.1933L28.8344 64.692L50.7477 86.2099Z" fill="#ED1C24"/>
<path d="M66.5461 50.7806L70.9288 50.7305L70.8268 54.5337L74.6999 54.4836L74.598 58.2868L78.471 58.2367L78.3691 62.0399L82.2422 61.9899L82.1402 65.793L86.0133 65.743L85.8604 69.9965V74.4001L81.9874 74.3001L82.0383 78.1533L78.1653 78.0532L78.2162 81.9064L74.3432 81.8063L74.3941 85.6595L70.5211 85.5594L70.572 89.4126L66.3423 89.1624H61.8577L61.9596 85.3592L58.0356 85.4093L58.1375 81.6061L54.2135 81.6562L54.3154 77.853L50.6462 77.803L50.7481 73.9998L46.8241 74.0499L47.0279 69.8464V65.4427L50.901 65.5428L50.85 61.6896L54.7231 61.7897L54.6721 57.9365L58.5452 58.0366L58.4942 54.1834L62.3673 54.2835L62.3163 50.4303L66.5461 50.7806ZM85.6056 69.8964L85.7075 66.0933L81.8345 66.1433L81.9364 62.3401L78.0633 62.3902L78.1653 58.587L74.2922 58.6371L74.3941 54.8339L70.5211 54.884L70.623 51.0808L66.699 51.1308L62.8769 50.9307L62.9279 54.7839L59.0548 54.6838L59.1058 58.537L55.2327 58.4369L55.2837 62.2901L51.4106 62.19L51.4616 66.0432L47.4866 65.9431V69.8964L47.2827 73.6495L51.2068 73.5995L51.1048 77.4026L55.0289 77.3526L54.9269 81.1557L58.851 81.1057L58.749 84.9089L62.673 84.8588L62.5711 88.662H66.5971L70.3682 88.8621L70.3172 85.0089L74.1903 85.109L74.1393 81.2558L78.0124 81.3559L77.9614 77.5027L81.8345 77.6028L81.7835 73.7496L85.6566 73.8497L85.6056 69.8964Z" fill="#ED1C24"/>
</svg>
