<svg width="268" height="60" viewBox="0 0 268 60" fill="none" xmlns="http://www.w3.org/2000/svg">
<path fill-rule="evenodd" clip-rule="evenodd" d="M50.6522 0.317623C44.0657 6.90414 37.4791 13.4907 30.9218 20.048L38.0037 27.13L50.7105 14.4233L69.3626 33.1045L76.4154 26.0517L50.6522 0.317623ZM38.0037 29.9278L27.1039 40.8276L38.0037 51.7275L48.9036 40.8276L38.0037 29.9278ZM50.5648 17.2502L47.4464 20.3686L49.9819 22.9041L50.9145 21.9715L65.6613 36.7184L67.8471 34.5326L50.5648 17.2502ZM46.776 21.0389L39.3443 28.4706L51.7305 40.8568C47.1549 45.4324 42.6085 49.9788 38.0329 54.5544L24.2769 40.8276C27.3953 37.7092 30.5137 34.5908 33.6321 31.4725L26.521 24.3905L12.5611 38.3504L26.9582 52.7475L31.1549 52.5435L38.3243 59.7129L45.4646 52.5726L49.6613 52.7766L64.0584 38.3796L46.776 21.0389ZM47.6795 50.3577L49.2241 50.5617L61.0857 38.7001L60.2114 37.8258L47.6795 50.3577ZM26.0547 0.288483L0.291504 26.0517L7.11118 32.8714L25.4136 14.569L29.0857 18.2411L36.5174 10.8094L26.0547 0.288483ZM8.9181 34.6783L10.8125 36.5726L25.8216 21.5344L34.7105 30.4233L36.6048 28.5289C33.0201 24.9442 29.4063 21.3304 25.8216 17.7457L8.9181 34.6783ZM28.9691 50.3286L27.4245 50.5326L15.5629 38.671L16.4372 37.7967L28.9691 50.3286Z" fill="#ED1C24"/>
<path d="M38.0038 29.6948L40.5102 29.6656L40.4519 31.8806L42.6668 31.8514L42.6085 34.0663L44.8235 34.0372L44.7652 36.2521L46.9801 36.223L46.9218 38.4379L49.1368 38.4088L49.0493 40.886V43.4507L46.8344 43.3924L46.8635 45.6365L44.6486 45.5782L44.6777 47.8223L42.4628 47.764L42.4919 50.0081L40.277 49.9498L40.3062 52.1938L37.8872 52.0481H35.3225L35.3808 49.8332L33.1368 49.8623L33.195 47.6474L30.951 47.6765L31.0093 45.4616L28.9109 45.4325L28.9692 43.2175L26.7251 43.2467L26.8417 40.7986V38.2339L29.0566 38.2922L29.0275 36.0481L31.2424 36.1064L31.2133 33.8623L33.4282 33.9206L33.399 31.6765L35.614 31.7348L35.5848 29.4908L38.0038 29.6948ZM48.9036 40.8277L48.9619 38.6128L46.747 38.6419L46.8052 36.427L44.5903 36.4561L44.6486 34.2412L42.4337 34.2704L42.4919 32.0554L40.277 32.0846L40.3353 29.8696L38.0912 29.8988L35.9054 29.7822L35.9346 32.0263L33.7196 31.968L33.7488 34.2121L31.5338 34.1538L31.563 36.3979L29.348 36.3396L29.3772 38.5836L27.104 38.5254V40.8277L26.9874 43.0135L29.2315 42.9844L29.1732 45.1993L31.4173 45.1702L31.359 47.3851L33.6031 47.356L33.5448 49.5709L35.7888 49.5418L35.7306 51.7567H38.0329L40.1896 51.8733L40.1604 49.6292L42.3754 49.6875L42.3462 47.4434L44.5612 47.5017L44.532 45.2576L46.747 45.3159L46.7178 43.0718L48.9327 43.1301L48.9036 40.8277Z" fill="#ED1C24"/>
<path d="M121.064 6.35046V8.68196C117.304 8.68196 117.042 9.20656 117.042 13.0244V37.2721C117.042 40.9734 117.363 41.498 121.122 41.498V43.8295H105.501V41.498C109.261 41.498 109.523 40.9734 109.523 37.2721V14.0153H109.377L97.2242 44.0918H94.8052L82.4774 13.9279H82.3608V37.2721C82.3608 40.9734 82.7397 41.498 86.1204 41.498V43.8295H75.1914V41.498C78.8344 41.498 79.155 40.9734 79.155 37.2721V12.7913C79.155 9.20655 78.8344 8.68196 75.1914 8.68196V6.35046H86.7032L98.0694 34.0954H98.2151L109.319 6.35046H121.064Z" fill="white"/>
<path d="M147.352 38.1172C147.352 40.7984 147.935 41.7602 149.042 41.7602C149.567 41.7602 150.091 41.6145 150.587 41.323L150.907 43.2757C149.596 43.8002 148.109 44.1208 145.836 44.1208C142.864 44.1208 141.494 43.2757 140.707 41.2647H140.503C138.696 43.0134 136.481 44.4414 132.255 44.4414C130.448 44.4414 128.437 43.9168 126.922 42.7511C125.494 41.7019 124.503 40.0115 124.503 37.7383C124.503 35.0571 125.61 32.9879 128.262 31.3849C130.273 30.1026 133.071 29.0534 136.831 28.2666L140.357 27.4797V25.2647C140.357 23.7784 140.153 22.4669 139.57 21.5635C138.929 20.5726 137.88 20.0188 136.306 20.0188C134.762 20.0188 133.887 20.4851 133.042 21.3012C132.401 21.9423 131.935 22.7875 131.468 23.9824C131.002 25.1482 130.186 25.8768 128.408 25.8768C126.66 25.8768 125.873 24.7693 125.873 23.487C125.873 21.8549 127.097 20.2228 129.108 19.2028C130.74 18.4159 132.955 17.7748 136.831 17.7748C141.581 17.7748 143.796 18.6199 145.399 20.3103C146.944 21.8549 147.468 24.0698 147.468 26.6636V38.1172H147.352ZM140.328 29.6655C138.259 30.2483 136.219 30.9478 134.674 32.0553C132.984 33.1627 131.876 34.4742 131.876 36.7474C131.876 38.0589 132.197 39.1664 132.867 39.9241C133.508 40.711 134.441 41.1481 135.723 41.1481C137.793 41.1481 139.221 39.9824 140.328 38.9332V29.6655Z" fill="white"/>
<path d="M156.241 44.1503L155.512 43.888V12.7914C155.512 9.67305 155.25 9.14846 152.772 9.14846V7.2541C155.308 6.87523 158.63 6.03006 161.749 4.77687L162.536 5.21403V20.5437H162.652C164.226 18.9991 166.412 17.8625 169.676 17.8625C172.998 17.8625 175.592 19.0282 177.486 21.0975C179.497 23.3707 180.663 26.6348 180.663 30.7732C180.663 34.7951 179.556 38.4964 177.224 40.9736C175.33 43.1885 172.561 44.5 168.889 44.5C165.508 44.5 163.497 43.3925 161.603 41.7022H161.457L156.241 44.1503ZM162.536 39.1667C163.527 40.1576 165.333 41.8479 167.548 41.8479C169.18 41.8479 170.783 41.0027 171.774 38.8461C172.619 37.0975 173.202 34.5036 173.202 30.7732C173.202 28.296 172.765 25.3816 171.774 23.3124C170.871 21.622 169.559 20.5146 167.665 20.5146C165.508 20.5146 164.022 21.6803 162.536 23.2541V39.1667Z" fill="white"/>
<path d="M201.588 25.3813C200.685 21.3594 199.111 20.048 195.934 20.048C194.652 20.048 193.545 20.3103 192.758 20.8349C191.913 21.3594 191.475 22.0589 191.475 23.0498C191.475 24.099 192.262 25.119 193.603 26.0225C195.148 26.9259 197.363 27.8294 198.732 28.7037C200.627 29.6946 202.171 30.7729 203.22 31.9678C204.328 33.1919 205.115 34.7073 205.115 36.5726C205.115 38.7001 204.211 40.5944 202.375 42.0225C200.481 43.5088 197.712 44.4414 193.807 44.4414C189.96 44.4414 187.191 43.8002 185.035 42.9551C184.772 40.6236 184.393 38.7875 183.869 36.3103L186.026 35.844C187.337 40.711 189.61 42.1973 192.962 42.1973C194.506 42.1973 195.76 41.7602 196.605 41.0316C197.392 40.3321 197.887 39.3995 197.887 38.2338C197.887 37.3303 197.625 36.5434 196.925 35.844C195.964 34.8822 194.448 34.2119 191.913 32.7838C189.698 31.4724 187.803 30.4523 186.463 29.0243C185.414 27.8002 184.656 26.343 184.656 24.4778C184.656 22.7292 185.501 20.9514 187.512 19.6691C189.202 18.5033 191.738 17.833 195.293 17.833C198.528 17.833 200.889 18.2993 202.696 18.9988C202.9 20.6308 203.133 22.2338 203.687 24.9733L201.588 25.3813Z" fill="white"/>
<path d="M231.373 38.1172C231.373 40.7984 231.956 41.7602 233.064 41.7602C233.588 41.7602 234.113 41.6145 234.608 41.323L234.929 43.2757C233.618 43.8002 232.131 44.1208 229.858 44.1208C226.885 44.1208 225.516 43.2757 224.729 41.2647H224.525C222.718 43.0134 220.503 44.4414 216.277 44.4414C214.47 44.4414 212.459 43.9168 210.944 42.7511C209.516 41.7019 208.525 40.0115 208.525 37.7383C208.525 35.0571 209.632 32.9879 212.284 31.3849C214.295 30.1026 217.093 29.0534 220.853 28.2666L224.379 27.4797V25.2647C224.379 23.7784 224.175 22.4669 223.592 21.5635C222.951 20.5726 221.902 20.0188 220.328 20.0188C218.783 20.0188 217.909 20.4851 217.064 21.3012C216.423 21.9423 215.956 22.7875 215.49 23.9824C215.024 25.1482 214.208 25.8768 212.43 25.8768C210.681 25.8768 209.894 24.7693 209.894 23.487C209.894 21.8549 211.118 20.2228 213.129 19.2028C214.761 18.4159 216.976 17.7748 220.853 17.7748C225.603 17.7748 227.818 18.6199 229.421 20.3103C230.965 21.8549 231.49 24.0698 231.49 26.6636V38.1172H231.373ZM224.35 29.6655C222.281 30.2483 220.241 30.9478 218.696 32.0553C217.006 33.1627 215.898 34.4742 215.898 36.7474C215.898 38.0589 216.219 39.1664 216.889 39.9241C217.53 40.711 218.463 41.1481 219.745 41.1481C221.814 41.1481 223.242 39.9824 224.35 38.9332V29.6655Z" fill="white"/>
<path d="M264.131 37.8548C264.131 41.1189 264.394 41.8183 266.783 41.8183V43.8293H254.63V41.8183C256.962 41.8183 257.108 41.3812 257.108 37.709V26.3429C257.108 24.4486 256.904 22.8165 256.058 21.8548C255.417 21.2136 254.63 20.8639 253.377 20.8639C251.541 20.8639 249.297 22.5542 247.286 25.2354V37.7673C247.286 41.4103 247.432 41.8475 249.676 41.8475V43.8584H237.086V41.8475C240 41.8475 240.262 41.3812 240.262 37.7382V26.2263C240.262 22.6999 239.942 22.2045 237.086 22.2045V20.3101C239.884 19.9895 243.264 19.2027 246.062 17.8912L246.965 18.3283L247.169 22.2919H247.286C249.618 19.6107 252.532 17.9203 255.942 17.9203C258.536 17.9203 260.547 18.5032 261.916 19.8147C263.344 21.1262 264.131 23.1954 264.131 26.3138V37.8548Z" fill="white"/>
</svg>
