<svg width="134" height="352" viewBox="0 0 134 352" fill="none" xmlns="http://www.w3.org/2000/svg">
<path d="M40.7315 302.128L43.2918 302.128C43.2918 306.182 43.8679 306.465 48.0603 306.465L74.687 306.465C78.7514 306.465 79.3274 306.119 79.3274 302.066L81.8877 302.066L81.8877 318.91L79.3274 318.91C79.3274 314.856 78.7514 314.573 74.687 314.573L49.1484 314.573L49.1484 314.73L82.1757 327.835L82.1757 330.443L49.0524 343.736L49.0524 343.862L74.687 343.862C78.7514 343.862 79.3274 343.453 79.3274 339.808L81.8877 339.808L81.8877 351.592L79.3274 351.592C79.3274 347.664 78.7514 347.318 74.687 347.318L47.8043 347.318C43.8679 347.318 43.2918 347.664 43.2918 351.592L40.7316 351.592L40.7316 339.179L71.1986 326.923L71.1986 326.766L40.7316 314.793L40.7315 302.128Z" fill="white"/>
<path d="M75.6148 273.782C78.559 273.782 79.6152 273.154 79.6152 271.96C79.6152 271.394 79.4551 270.828 79.1351 270.294L81.2793 269.948C81.8554 271.362 82.2074 272.965 82.2074 275.416C82.2074 278.622 81.2793 280.099 79.0711 280.947L79.0711 281.167C80.9913 283.116 82.5594 285.504 82.5594 290.061C82.5594 292.009 81.9834 294.177 80.7033 295.812C79.5511 297.351 77.695 298.42 75.1987 298.42C72.2544 298.42 69.9822 297.226 68.222 294.366C66.8139 292.198 65.6618 289.181 64.7977 285.127L63.9336 281.324L61.5013 281.324C59.8692 281.324 58.429 281.544 57.4369 282.173C56.3488 282.864 55.7408 283.996 55.7408 285.693C55.7408 287.358 56.2528 288.301 57.1489 289.212C57.853 289.904 58.7811 290.406 60.0932 290.909C61.3733 291.412 62.1734 292.292 62.1734 294.209C62.1734 296.094 60.9573 296.943 59.5491 296.943C57.757 296.943 55.9648 295.623 54.8447 293.455C53.9806 291.695 53.2765 289.306 53.2765 285.127C53.2765 280.005 54.2046 277.616 56.0608 275.888C57.757 274.222 60.1892 273.657 63.0375 273.657L75.6148 273.657L75.6148 273.782ZM66.3338 281.356C66.9739 283.587 67.742 285.787 68.9581 287.452C70.1742 289.275 71.6143 290.469 74.1106 290.469C75.5507 290.469 76.7669 290.124 77.599 289.401C78.463 288.709 78.9431 287.704 78.9431 286.321C78.9431 284.09 77.663 282.55 76.5108 281.356L66.3338 281.356Z" fill="white"/>
<path d="M82.2397 264.198L81.9517 264.984L47.8043 264.984C44.3799 264.984 43.8039 265.266 43.8039 267.938L41.7237 267.938C41.3076 265.203 40.3795 261.621 39.0034 258.258L39.4834 257.41L56.3171 257.41L56.3171 257.284C54.621 255.587 53.3728 253.23 53.3728 249.711C53.3728 246.128 54.653 243.331 56.9252 241.289C59.4214 239.12 63.0058 237.863 67.5503 237.863C71.9667 237.863 76.0311 239.057 78.7514 241.571C81.1836 243.614 82.6238 246.599 82.6238 250.559C82.6238 254.204 81.4077 256.373 79.5515 258.416L79.5515 258.573L82.2397 264.198ZM76.7672 257.41C77.8553 256.341 79.7115 254.393 79.7115 252.005C79.7115 250.245 78.7834 248.516 76.4152 247.448C74.495 246.537 71.6467 245.908 67.5503 245.908C64.83 245.908 61.6297 246.38 59.3574 247.448C57.5013 248.422 56.2851 249.836 56.2851 251.879C56.2851 254.205 57.5653 255.807 59.2934 257.41L76.7672 257.41Z" fill="white"/>
<path d="M61.6293 215.299C57.2129 216.273 55.7727 217.97 55.7727 221.396C55.7727 222.778 56.0608 223.972 56.6368 224.821C57.2129 225.732 57.981 226.204 59.0691 226.204C60.2212 226.204 61.3413 225.355 62.3334 223.91C63.3255 222.244 64.3176 219.856 65.2777 218.379C66.3658 216.336 67.5499 214.67 68.8621 213.539C70.2062 212.345 71.8704 211.496 73.9186 211.496C76.2548 211.496 78.335 212.471 79.9032 214.45C81.5353 216.493 82.5594 219.479 82.5594 223.69C82.5594 227.838 81.8554 230.823 80.9273 233.149C78.367 233.432 76.3508 233.84 73.6305 234.406L73.1185 232.08C78.463 230.666 80.0952 228.215 80.0952 224.601C80.0952 222.935 79.6152 221.584 78.8151 220.673C78.047 219.824 77.0229 219.29 75.7428 219.29C74.7507 219.29 73.8866 219.573 73.1185 220.327C72.0624 221.364 71.3263 222.998 69.7582 225.732C68.318 228.121 67.1979 230.163 65.6297 231.609C64.2856 232.74 62.6854 233.557 60.6372 233.557C58.717 233.557 56.7649 232.646 55.3567 230.478C54.0766 228.655 53.3405 225.921 53.3405 222.087C53.3405 218.599 53.8526 216.053 54.6206 214.105C56.4128 213.885 58.173 213.633 61.1813 213.036L61.6293 215.299Z" fill="white"/>
<path d="M75.6148 183.182C78.559 183.182 79.6152 182.554 79.6152 181.359C79.6152 180.794 79.4551 180.228 79.1351 179.694L81.2793 179.348C81.8554 180.762 82.2074 182.365 82.2074 184.816C82.2074 188.022 81.2793 189.499 79.0711 190.347L79.0711 190.567C80.9913 192.516 82.5594 194.904 82.5594 199.461C82.5594 201.409 81.9834 203.577 80.7033 205.211C79.5511 206.751 77.695 207.82 75.1987 207.82C72.2544 207.82 69.9822 206.626 68.222 203.766C66.8139 201.598 65.6618 198.581 64.7977 194.527L63.9336 190.724L61.5013 190.724C59.8692 190.724 58.429 190.944 57.4369 191.573C56.3488 192.264 55.7408 193.395 55.7408 195.092C55.7408 196.758 56.2528 197.701 57.1489 198.612C57.853 199.303 58.7811 199.806 60.0932 200.309C61.3733 200.812 62.1734 201.692 62.1734 203.609C62.1734 205.494 60.9573 206.343 59.5491 206.343C57.757 206.343 55.9648 205.023 54.8447 202.855C53.9806 201.095 53.2765 198.706 53.2765 194.527C53.2765 189.404 54.2046 187.016 56.0608 185.288C57.757 183.622 60.1892 183.056 63.0375 183.056L75.6148 183.056L75.6148 183.182ZM66.3338 190.756C66.9739 192.987 67.742 195.187 68.9581 196.852C70.1742 198.675 71.6143 199.869 74.1106 199.869C75.5507 199.869 76.7669 199.523 77.599 198.801C78.463 198.109 78.9431 197.104 78.9431 195.721C78.9431 193.49 77.663 191.95 76.5108 190.756L66.3338 190.756Z" fill="white"/>
<path d="M75.3266 147.86C78.9109 147.86 79.679 147.577 79.679 145L81.8872 145L81.8872 158.105L79.679 158.105C79.679 155.591 79.199 155.434 75.1666 155.434L62.6853 155.434C60.6051 155.434 58.8129 155.654 57.7568 156.565C57.0527 157.256 56.6687 158.105 56.6687 159.456C56.6687 161.436 58.5249 163.856 61.4692 166.024L75.2306 166.024C79.231 166.024 79.711 165.867 79.711 163.447L81.9192 163.447L81.9193 177.023L79.711 177.023C79.711 173.88 79.199 173.598 75.1986 173.598L62.5573 173.598C58.6849 173.598 58.1409 173.943 58.1409 177.023L56.0606 177.023C55.7086 174.006 54.8445 170.361 53.4044 167.344L53.8844 166.37L58.2369 166.15L58.2369 166.024C55.2926 163.51 53.4364 160.367 53.4364 156.691C53.4364 153.894 54.0764 151.725 55.5166 150.248C56.9567 148.708 59.229 147.86 62.6533 147.86L75.3266 147.86Z" fill="white"/>
<path fill-rule="evenodd" clip-rule="evenodd" d="M88.6629 0.338646C77.1457 11.648 65.6284 22.9574 54.1621 34.2167L66.5457 46.3768L88.7648 24.5587L121.38 56.6353L133.713 44.5253L88.6629 0.338646ZM66.5457 51.1808L47.4862 69.8963L66.5457 88.6119L85.6052 69.8963L66.5457 51.1808ZM88.51 29.4128L83.0572 34.7672L87.4908 39.1208L89.1216 37.5195L114.908 62.8405L118.73 59.0874L88.51 29.4128ZM81.8851 35.9182L68.8899 48.6787L90.5485 69.9464C82.5476 77.8029 74.5976 85.6094 66.5967 93.4659L42.5429 69.8963C47.9958 64.5419 53.4487 59.1875 58.9015 53.833L46.467 41.6729L22.0565 65.6428L47.2314 90.3633L54.5698 90.013L67.1063 102.323L79.5918 90.0631L86.9302 90.4134L112.105 65.6929L81.8851 35.9182ZM83.4649 86.2599L86.1658 86.6102L106.907 66.2433L105.378 64.7421L83.4649 86.2599ZM45.6516 0.288612L0.601807 44.5253L12.5267 56.235L44.5304 24.8089L50.9516 31.1142L63.9467 18.3536L45.6516 0.288612ZM15.6863 59.3376L18.9988 62.5903L45.2439 36.7689L60.7871 52.0315L64.0996 48.7788C57.8313 42.6237 51.5121 36.4186 45.2439 30.2635L15.6863 59.3376ZM50.7477 86.2099L48.0468 86.5602L27.3055 66.1933L28.8344 64.692L50.7477 86.2099Z" fill="#ED1C24"/>
<path d="M66.5461 50.7806L70.9288 50.7305L70.8268 54.5337L74.6999 54.4836L74.598 58.2868L78.471 58.2367L78.3691 62.0399L82.2422 61.9899L82.1402 65.793L86.0133 65.743L85.8604 69.9965V74.4001L81.9874 74.3001L82.0383 78.1533L78.1653 78.0532L78.2162 81.9064L74.3432 81.8063L74.3941 85.6595L70.5211 85.5594L70.572 89.4126L66.3423 89.1624H61.8577L61.9596 85.3592L58.0356 85.4093L58.1375 81.6061L54.2135 81.6562L54.3154 77.853L50.6462 77.803L50.7481 73.9998L46.8241 74.0499L47.0279 69.8464V65.4427L50.901 65.5428L50.85 61.6896L54.7231 61.7897L54.6721 57.9365L58.5452 58.0366L58.4942 54.1834L62.3673 54.2835L62.3163 50.4303L66.5461 50.7806ZM85.6056 69.8964L85.7075 66.0933L81.8345 66.1433L81.9364 62.3401L78.0633 62.3902L78.1653 58.587L74.2922 58.6371L74.3941 54.8339L70.5211 54.884L70.623 51.0808L66.699 51.1308L62.8769 50.9307L62.9279 54.7839L59.0548 54.6838L59.1058 58.537L55.2327 58.4369L55.2837 62.2901L51.4106 62.19L51.4616 66.0432L47.4866 65.9431V69.8964L47.2827 73.6495L51.2068 73.5995L51.1048 77.4026L55.0289 77.3526L54.9269 81.1557L58.851 81.1057L58.749 84.9089L62.673 84.8588L62.5711 88.662H66.5971L70.3682 88.8621L70.3172 85.0089L74.1903 85.109L74.1393 81.2558L78.0124 81.3559L77.9614 77.5027L81.8345 77.6028L81.7835 73.7496L85.6566 73.8497L85.6056 69.8964Z" fill="#ED1C24"/>
</svg>
